<?xml version="1.0" standalone="no"?>
<!DOCTYPE svg PUBLIC "-//W3C//DTD SVG 20010904//EN"
 "http://www.w3.org/TR/2001/REC-SVG-20010904/DTD/svg10.dtd">
<svg version="1.0" xmlns="http://www.w3.org/2000/svg"
 width="250.000000pt" height="250.000000pt" viewBox="0 0 250.000000 250.000000"
 preserveAspectRatio="xMidYMid meet">
<metadata>
Created by potrace 1.11, written by Peter Selinger 2001-2013
</metadata>
<g transform="translate(0.000000,250.000000) scale(0.100000,-0.100000)"
fill="#000000" stroke="none">
<path d="M1076 2379 c-79 -12 -200 -45 -256 -70 -25 -12 -61 -28 -80 -37 -117
-53 -320 -222 -406 -338 -80 -108 -162 -281 -190 -399 -9 -39 -18 -79 -21 -90
-14 -51 -12 -323 3 -400 77 -403 350 -723 741 -871 206 -78 513 -84 723 -14
101 33 170 64 250 113 94 57 112 72 214 172 144 142 245 312 295 495 11 41 25
106 31 143 11 71 14 250 5 302 -3 17 -8 46 -11 65 -13 75 -16 87 -39 156 -59
175 -146 316 -280 449 -220 222 -498 337 -804 334 -64 -1 -143 -5 -175 -10z"/>
</g>
</svg>
